HIERARCHY
ROOT joint_Root
{
	OFFSET 0.0 0.0 0.0
	CHANNELS 6 Xposition Yposition Zposition Zrotation Xrotation Yrotation 
	JOINT Hips
	{
		OFFSET 4.5925 91.4895 -427.239
		CHANNELS 6 Xposition Yposition Zposition Zrotation Xrotation Yrotation 
		JOINT Spine
		{
			OFFSET 15.7357 0.0 0.0
			CHANNELS 6 Xposition Yposition Zposition Zrotation Xrotation Yrotation 
			JOINT Chest
			{
				OFFSET 8.98455 -0.406207 0.0
				CHANNELS 6 Xposition Yposition Zposition Zrotation Xrotation Yrotation 
				JOINT Neck
				{
					OFFSET 16.3773 0.0 0.0
					CHANNELS 6 Xposition Yposition Zposition Zrotation Xrotation Yrotation 
					JOINT Head
					{
						OFFSET 6.45672 0.0 0.0
						CHANNELS 6 Xposition Yposition Zposition Zrotation Xrotation Yrotation 
						End Site
						{
							OFFSET 0.0 0.0 0.0
						}
					}
				}
				JOINT Shoulder_L
				{
					OFFSET 12.9942 -0.242716 4.98039
					CHANNELS 6 Xposition Yposition Zposition Zrotation Xrotation Yrotation 
					JOINT UpperArm_L
					{
						OFFSET 5.34809 0.0 0.0
						CHANNELS 6 Xposition Yposition Zposition Zrotation Xrotation Yrotation 
						JOINT LowerArm_L
						{
							OFFSET 24.3286 1.87007e-05 0.0
							CHANNELS 6 Xposition Yposition Zposition Zrotation Xrotation Yrotation 
							JOINT Hand_L
							{
								OFFSET 22.2916 0.0 0.0
								CHANNELS 6 Xposition Yposition Zposition Zrotation Xrotation Yrotation 
								End Site
								{
									OFFSET 0.0 0.0 0.0
								}
							}
						}
					}
				}
				JOINT Shoulder_R
				{
					OFFSET 12.9945 -0.242716 -4.98039
					CHANNELS 6 Xposition Yposition Zposition Zrotation Xrotation Yrotation 
					JOINT UpperArm_R
					{
						OFFSET -5.34813 0.0 0.0
						CHANNELS 6 Xposition Yposition Zposition Zrotation Xrotation Yrotation 
						JOINT LowerArm_R
						{
							OFFSET -24.3289 0.000322201 0.0
							CHANNELS 6 Xposition Yposition Zposition Zrotation Xrotation Yrotation 
							JOINT Hand_R
							{
								OFFSET -22.2915 -0.000108084 0.0
								CHANNELS 6 Xposition Yposition Zposition Zrotation Xrotation Yrotation 
								End Site
								{
									OFFSET 0.0 0.0 0.0
								}
							}
						}
					}
				}
			}
		}
		JOINT UpperLeg_L
		{
			OFFSET -2.19248 -6.46944 0.0
			CHANNELS 6 Xposition Yposition Zposition Zrotation Xrotation Yrotation 
			JOINT LowerLeg_L
			{
				OFFSET 39.0811 0.0 -1.23785e-05
				CHANNELS 6 Xposition Yposition Zposition Zrotation Xrotation Yrotation 
				JOINT Foot_L
				{
					OFFSET 40.9854 0.0 -1.26872e-05
					CHANNELS 6 Xposition Yposition Zposition Zrotation Xrotation Yrotation 
					JOINT Toes_L
					{
						OFFSET 11.7543 0.0 0.0
						CHANNELS 6 Xposition Yposition Zposition Zrotation Xrotation Yrotation 
						End Site
						{
							OFFSET 0.0 0.0 0.0
						}
					}
				}
			}
		}
		JOINT UpperLeg_R
		{
			OFFSET -2.19251 6.46944 0.0
			CHANNELS 6 Xposition Yposition Zposition Zrotation Xrotation Yrotation 
			JOINT LowerLeg_R
			{
				OFFSET -39.0811 -0.00228153 -0.0401928
				CHANNELS 6 Xposition Yposition Zposition Zrotation Xrotation Yrotation 
				JOINT Foot_R
				{
					OFFSET -40.9854 0.0 0.0
					CHANNELS 6 Xposition Yposition Zposition Zrotation Xrotation Yrotation 
					JOINT Toes_R
					{
						OFFSET -11.7543 0.0 0.0
						CHANNELS 6 Xposition Yposition Zposition Zrotation Xrotation Yrotation 
						End Site
						{
							OFFSET 0.0 0.0 0.0
						}
					}
				}
			}
		}
	}
}
MOTION
Frames:	4
Frame Time:	0.0333333
0.000000 0.000000 0.000000 0.000000 0.000000 -0.000000 -0.264005 90.288700 1.125000 89.567500 -4.045320 12.678800 15.735700 0.000005 -0.000001 89.071000 81.893200 -89.640700 8.984550 -0.406207 -0.000000 8.444370 -0.265017 -1.118670 16.377300 -0.000001 -0.000001 11.316600 -4.416770 0.448585 6.456720 -0.000001 -0.000000 1.391100 -4.117860 -5.221000 12.994200 -0.242716 4.980390 -90.598000 2.132100 -74.329300 5.348090 -0.000007 -0.000001 -47.441800 -9.568230 -56.167800 24.328600 0.000019 0.000005 39.267500 -7.865760 -99.502900 22.291600 -0.000001 0.000005 33.785400 5.148200 3.983260 12.994500 -0.242716 -4.980390 89.275800 4.592850 -81.029300 -5.348130 -0.000001 -0.000004 -43.101200 -8.591240 -56.056200 -24.328900 0.000322 -0.000009 22.026000 -4.151640 -100.146000 -22.291500 -0.000108 -0.000004 37.134900 5.480370 -5.765060 -2.192480 -6.469440 -0.000000 -174.768000 -11.339500 2.446890 39.081100 -0.000007 -0.000012 -0.215191 0.333963 32.796300 40.985400 -0.000006 -0.000013 0.673203 4.658090 -72.391900 11.754300 -0.000000 0.000003 -0.000177 -0.001672 -16.640900 -2.192510 6.469440 -0.000001 172.098000 20.291800 -176.358000 -39.081100 -0.002282 -0.040193 -0.262124 0.420966 32.232000 -40.985400 0.000008 0.000006 3.205870 14.135300 -72.367400 -11.754300 -0.000006 -0.000006 -0.002050 -0.029341 -17.766200
0.000000 0.000000 0.000000 0.000000 0.000000 -0.000000 -0.261383 90.289400 1.139270 89.555300 -4.067270 12.638300 15.735700 0.000005 -0.000001 89.078300 81.905500 -89.656200 8.984550 -0.406207 -0.000000 8.419920 -0.262483 -1.135420 16.377300 -0.000001 -0.000001 11.297000 -4.432400 0.403011 6.456720 -0.000001 -0.000000 1.376860 -4.149880 -5.268500 12.994200 -0.242716 4.980390 -90.554600 1.987360 -74.405700 5.348090 -0.000007 -0.000001 -44.757500 -8.250080 -57.005300 24.328600 0.000019 0.000005 39.608500 -8.625590 -100.273000 22.291600 -0.000001 0.000005 32.858400 5.211140 2.435760 12.994500 -0.242716 -4.980390 89.291700 4.509860 -81.064900 -5.348130 -0.000001 -0.000004 -40.409100 -7.280760 -56.919700 -24.328900 0.000322 -0.000009 22.245200 -4.503190 -100.867000 -22.291500 -0.000108 -0.000004 36.824500 5.510060 -6.944800 -2.192480 -6.469440 -0.000000 -174.758000 -11.372700 2.412590 39.081100 -0.000007 -0.000012 -0.216063 0.335289 32.798400 40.985400 -0.000006 -0.000013 0.682989 4.677140 -72.398500 11.754300 -0.000000 0.000003 -0.000186 -0.001741 -16.643400 -2.192510 6.469440 -0.000001 172.122000 20.260100 -176.377000 -39.081100 -0.002282 -0.040193 -0.265747 0.427068 32.210500 -40.985400 0.000008 0.000006 3.184800 14.107900 -72.366000 -11.754300 -0.000006 -0.000006 -0.002056 -0.029415 -17.769200
0.000000 0.000000 0.000000 0.000000 0.000000 -0.000000 -0.245285 90.289600 1.160300 89.588900 -4.077990 12.644800 15.735700 0.000005 -0.000001 89.097000 81.907200 -89.699100 8.984550 -0.406207 -0.000000 8.416480 -0.257306 -1.184150 16.377300 -0.000001 -0.000001 11.304700 -4.436560 0.388278 6.456720 -0.000001 -0.000000 1.342810 -4.158510 -5.343450 12.994200 -0.242716 4.980390 -90.527000 1.888790 -74.406100 5.348090 -0.000007 -0.000001 -42.004900 -6.917600 -57.927400 24.328600 0.000019 0.000005 39.541900 -9.272910 -101.044000 22.291600 -0.000001 0.000005 32.205100 5.257440 1.233870 12.994500 -0.242716 -4.980390 89.307000 4.434180 -81.108800 -5.348130 -0.000001 -0.000004 -37.926500 -6.122180 -57.763600 -24.328900 0.000322 -0.000009 22.375500 -4.855010 -101.618000 -22.291500 -0.000108 -0.000004 36.489500 5.539870 -8.239020 -2.192480 -6.469440 -0.000000 -174.797000 -11.377500 2.449540 39.081100 -0.000007 -0.000012 -0.216939 0.337050 32.767400 40.985400 -0.000006 -0.000013 0.683610 4.657120 -72.400400 11.754300 -0.000000 0.000003 -0.000197 -0.001825 -16.646400 -2.192510 6.469440 -0.000001 172.065000 20.281700 -176.368000 -39.081100 -0.002282 -0.040193 -0.261315 0.419839 32.222400 -40.985400 0.000008 0.000006 3.195500 14.171800 -72.380900 -11.754300 -0.000006 -0.000006 -0.002038 -0.029188 -17.760000
0.000000 0.000000 0.000000 0.000000 0.000000 -0.000000 -0.237678 90.293800 1.184850 89.574300 -4.075770 12.618100 15.735700 0.000005 -0.000001 89.015100 81.915900 -89.623700 8.984550 -0.406207 -0.000000 8.398650 -0.279963 -1.195390 16.377300 -0.000001 -0.000001 11.325800 -4.503260 0.298177 6.456720 -0.000001 -0.000000 1.329790 -4.091770 -5.360210 12.994200 -0.242716 4.980390 -90.500900 1.792250 -74.382600 5.348090 -0.000007 -0.000001 -39.453700 -5.679660 -58.808500 24.328600 0.000019 0.000005 39.778600 -9.952310 -101.728000 22.291600 -0.000001 0.000005 31.517100 5.292710 0.274459 12.994500 -0.242716 -4.980390 89.319100 4.366230 -81.126900 -5.348130 -0.000001 -0.000004 -35.714400 -5.052010 -58.673100 -24.328900 0.000322 -0.000009 22.342300 -5.157330 -102.337000 -22.291500 -0.000108 -0.000004 35.880800 5.562070 -9.290510 -2.192480 -6.469440 -0.000000 -174.786000 -11.415000 2.459620 39.081100 -0.000007 -0.000012 -0.217277 0.337903 32.742000 40.985400 -0.000006 -0.000013 0.683309 4.635310 -72.408700 11.754300 -0.000000 0.000003 -0.000179 -0.001689 -16.641500 -2.192510 6.469440 -0.000001 172.067000 20.317300 -176.349000 -39.081100 -0.002282 -0.040193 -0.262581 0.422555 32.179200 -40.985400 0.000008 0.000006 3.186910 14.182400 -72.375600 -11.754300 -0.000006 -0.000006 -0.002018 -0.028938 -17.749800
